#N canvas -56 198 1920 997 12;
#X obj 537 124 vu 19 120 empty empty -1 -10 0 12 #404040 #000000 0 0;
#X obj 512 124 vsl 19 120 1e-05 1.5 1 0 \$0-level \$0-set-level level -5 135 0 12 #fcfcfc #000000 #000000 0 1;
#X obj 58 19 inlet~;
#X obj 58 120 *~;
#X obj 623 248 tgl 19 0 \$0-mute \$0-set-mute mute -4 -10 0 12 #fcfcfc #000000 #000000 0 1;
#X obj 188 220 line~;
#X obj 191 161 - 1;
#X msg 189 133 1, f 1;
#X obj 175 103 t b f;
#X obj 76 87 r \$0-level;
#X obj 63 252 *~;
#X msg 191 185 \$1 25;
#N canvas 329 161 625 417 vu 0;
#X obj 59 129 env~ 1024;
#X obj 161 111 abs~;
#X obj 161 213 snapshot~;
#X obj 161 256 rmstodb;
#X obj 161 21 inlet~;
#X obj 161 288 - 100;
#X obj 59 287 - 100;
#X obj 59 361 outlet;
#X obj 161 361 outlet;
#X text 344 307 Check the help file of env~ and slop~ for more details., f 31;
#X obj 239 89 expr 1000 / $f1;
#X floatatom 239 117 5 0 0 0 - - - 0;
#X obj 161 146 slop~ 0 0 0 0 1e+09;
#X obj 239 18 inlet;
#X floatatom 239 57 5 0 0 0 - - - 0;
#X text 359 89 convert to hz;
#X text 282 118 hz;
#X text 284 57 peak decay time in ms;
#X obj 59 171 t f b;
#X text 345 132 The env~ object is dedicated to RMS analysis. Its output is in dB (0-100 range \, pd style) but needs to be converted to dBFS (and we do that by simply subtracting 100)., f 31;
#X text 345 225 The slop~ object is used here for peak detection. We need to convert the output to dB with rmstodb and also subtract by 100 to convert it to dBFS., f 31;
#X connect 0 0 18 0;
#X connect 1 0 12 0;
#X connect 2 0 3 0;
#X connect 3 0 5 0;
#X connect 4 0 0 0;
#X connect 4 0 1 0;
#X connect 5 0 8 0;
#X connect 6 0 7 0;
#X connect 10 0 11 0;
#X connect 11 0 12 3;
#X connect 12 0 2 0;
#X connect 13 0 14 0;
#X connect 14 0 10 0;
#X connect 18 0 6 0;
#X connect 18 1 2 0;
#X restore 522 72 pd vu;
#X floatatom 552 48 6 0 1000 0 - - - 0;
#X msg 553 18 500, f 7;
#X obj 553 -8 loadbang;
#X obj 175 77 r \$0-mute;
#X obj 62 299 outlet~;
#X obj 931 209 pack f f;
#X obj 931 176 f;
#X obj 949 138 r \$0-mute;
#X obj 984 171 r \$0-level;
#X obj 787 238 unpack f f, f 16;
#X obj 787 285 s \$0-set-mute;
#X obj 896 285 s \$0-set-level;
#X obj 787 113 savestate \$0-Busmixer;
#X obj 566 124 vu 19 120 empty empty -1 -10 0 12 #404040 #000000 1 0;
#X obj 283 68 inlet~;
#X obj 285 160 *~;
#X obj 314 127 r \$0-level;
#X obj 285 212 *~;
#X obj 284 298 outlet~;
#N canvas 329 161 625 417 vu 0;
#X obj 59 129 env~ 1024;
#X obj 161 111 abs~;
#X obj 161 213 snapshot~;
#X obj 161 256 rmstodb;
#X obj 161 21 inlet~;
#X obj 161 288 - 100;
#X obj 59 287 - 100;
#X obj 59 361 outlet;
#X obj 161 361 outlet;
#X text 344 307 Check the help file of env~ and slop~ for more details., f 31;
#X obj 239 89 expr 1000 / $f1;
#X floatatom 239 117 5 0 0 0 - - - 0;
#X obj 161 146 slop~ 0 0 0 0 1e+09;
#X obj 239 18 inlet;
#X floatatom 239 57 5 0 0 0 - - - 0;
#X text 359 89 convert to hz;
#X text 282 118 hz;
#X text 284 57 peak decay time in ms;
#X obj 59 171 t f b;
#X text 345 132 The env~ object is dedicated to RMS analysis. Its output is in dB (0-100 range \, pd style) but needs to be converted to dBFS (and we do that by simply subtracting 100)., f 31;
#X text 345 225 The slop~ object is used here for peak detection. We need to convert the output to dB with rmstodb and also subtract by 100 to convert it to dBFS., f 31;
#X connect 0 0 18 0;
#X connect 1 0 12 0;
#X connect 2 0 3 0;
#X connect 3 0 5 0;
#X connect 4 0 0 0;
#X connect 4 0 1 0;
#X connect 5 0 8 0;
#X connect 6 0 7 0;
#X connect 10 0 11 0;
#X connect 11 0 12 3;
#X connect 12 0 2 0;
#X connect 13 0 14 0;
#X connect 14 0 10 0;
#X connect 18 0 6 0;
#X connect 18 1 2 0;
#X restore 568 74 pd vu;
#X connect 2 0 3 0;
#X connect 3 0 10 0;
#X connect 5 0 10 1;
#X connect 5 0 30 1;
#X connect 6 0 11 0;
#X connect 7 0 6 0;
#X connect 8 0 7 0;
#X connect 8 1 6 1;
#X connect 9 0 3 1;
#X connect 10 0 12 0;
#X connect 10 0 17 0;
#X connect 11 0 5 0;
#X connect 12 0 0 0;
#X connect 12 1 0 1;
#X connect 13 0 12 1;
#X connect 13 0 32 1;
#X connect 14 0 13 0;
#X connect 15 0 14 0;
#X connect 16 0 8 0;
#X connect 18 0 25 0;
#X connect 19 0 18 0;
#X connect 20 0 19 1;
#X connect 21 0 18 1;
#X connect 22 0 23 0;
#X connect 22 1 24 0;
#X connect 25 0 22 0;
#X connect 25 1 19 0;
#X connect 27 0 28 0;
#X connect 28 0 30 0;
#X connect 29 0 28 1;
#X connect 30 0 31 0;
#X connect 30 0 32 0;
#X connect 32 0 26 0;
#X connect 32 1 26 1;
#X coords 0 -1 1 1 150 170 1 500 100;
