#N canvas 21 92 1920 1041 12;
#X obj 34 42 inlet~;
#X obj 47 336 delread~ \$0-delayBuffer 500;
#X floatatom 49 308 5 0 1000 0 - - - 0;
#X obj 54 411 +~;
#X obj 45 604 send~ \$0-feedback;
#X obj 46 569 *~ 0;
#X obj 60 98 receive~ \$0-feedback;
#X obj 39 130 +~;
#X obj 52 445 outlet~;
#X text 363 493 The feedback coefficient is given by the equation fb == 0.001 ** (delay / decay.abs) * decay.sign where 0.001 is -60 dBFS.;
#N canvas 208 208 450 300 sign 0;
#X obj 120 68 inlet;
#X obj 117 164 sel 1 0;
#X msg 98 231 1;
#X msg 156 228 -1;
#X obj 97 266 outlet;
#X obj 120 130 >= 0;
#X connect 0 0 5 0;
#X connect 1 0 2 0;
#X connect 1 1 3 0;
#X connect 2 0 4 0;
#X connect 3 0 4 0;
#X connect 5 0 1 0;
#X restore 297 363 pd sign;
#X floatatom 269 307 5 0 0 0 - - - 0;
#X floatatom 88 528 21 0 0 0 - - - 0;
#X floatatom 297 399 5 0 0 0 - - - 0;
#X obj 271 442 pack f f f;
#X obj 84 499 expr pow(0.001 \, $f1/abs($f2)) * $f3;
#X obj 268 361 bng 19 250 50 0 empty empty empty 0 -10 0 12 #fcfcfc #000000 #000000;
#X obj 268 336 t b f;
#X obj 56 73 send~ \$0-1st-inlet;
#X obj 74 379 receive~ \$0-1st-inlet;
#X obj 39 158 delwrite~ \$0-delayBuffer 1500;
#X obj 97 556 outlet;
#X obj 1013 145 hsl 162 19 0 1.5 0 0 \$0-delay-time \$0-set-delay-time Delay\ time 40 10 0 12 #fcfcfc #000000 #000000 0 1;
#X obj 1012 202 hsl 162 19 -0.1 2 0 0 \$0-decay-time \$0-set-decay-time decay\ time 40 10 0 12 #fcfcfc #000000 #000000 0 1;
#X floatatom 1010 171 5 0 0 0 - - - 0;
#X floatatom 1009 226 5 0 0 0 - - - 0;
#X obj 52 279 r \$0-delay-time;
#X obj 271 276 r \$0-decay-time;
#X text 1060 112 COMB DELAY;
#X obj 1346 234 savestate \$0-combDelay;
#X obj 1500 335 pack f f;
#X obj 1501 300 f;
#X obj 1519 258 r \$0-delay-time;
#X obj 1644 260 r \$0-decay-time;
#X obj 1349 334 unpack f f;
#X obj 1353 465 s \$0-set-delay-time;
#X obj 1515 465 s \$0-set-decay-time;
#X obj 581 245 route delayTime decayTime;
#X obj 581 353 s \$0-set-delay-time;
#X obj 669 314 s \$0-set-decay-time;
#X symbolatom 608 286 10 0 0 0 - - - 0;
#X symbolatom 699 287 10 0 0 0 - - - 0;
#X symbolatom 789 286 10 0 0 0 - - - 0;
#X connect 0 0 7 0;
#X connect 0 0 18 0;
#X connect 0 1 37 0;
#X connect 1 0 5 0;
#X connect 1 0 3 0;
#X connect 2 0 1 0;
#X connect 2 0 14 0;
#X connect 3 0 8 0;
#X connect 5 0 4 0;
#X connect 6 0 7 1;
#X connect 7 0 20 0;
#X connect 10 0 13 0;
#X connect 10 0 14 2;
#X connect 11 0 17 0;
#X connect 12 0 21 0;
#X connect 14 0 15 0;
#X connect 15 0 5 1;
#X connect 15 0 12 0;
#X connect 16 0 14 0;
#X connect 17 0 16 0;
#X connect 17 1 10 0;
#X connect 17 1 14 1;
#X connect 19 0 3 1;
#X connect 22 0 24 0;
#X connect 23 0 25 0;
#X connect 26 0 2 0;
#X connect 27 0 11 0;
#X connect 29 0 34 0;
#X connect 29 1 31 0;
#X connect 30 0 29 0;
#X connect 31 0 30 0;
#X connect 32 0 31 1;
#X connect 33 0 30 1;
#X connect 34 0 35 0;
#X connect 34 1 36 0;
#X connect 37 0 38 0;
#X connect 37 0 40 0;
#X connect 37 1 39 0;
#X connect 37 1 41 0;
#X connect 37 2 42 0;
#X coords 0 -1 1 1 200 160 1 1000 100;
