#N canvas -231 140 1920 997 12;
#X obj 69 197 delwrite~ \$0-delayBuffer 1000;
#X obj 64 81 inlet~;
#X obj 17 503 delread~ \$0-delayBuffer 500;
#X obj 1012 201 hsl 162 19 0 1000 0 0 \$0-delay-time \$0-set-delay-time Delay\ time 40 10 0 12 #fcfcfc #000000 #000000 0 1;
#X floatatom 19 475 5 0 1000 0 - - - 0;
#X obj 285 634 +~;
#X obj 18 710 send~ \$0-feedback;
#X obj 1009 257 hsl 162 19 0 0.99 0 0 \$0-delay-feedback \$0-set-delay-feedback Feedback 40 10 0 12 #fcfcfc #000000 #000000 0 1;
#X floatatom 42 650 5 0 1 0 - - - 0;
#X obj 19 675 *~ 0;
#X obj 90 137 receive~ \$0-feedback;
#X obj 69 169 +~;
#X obj 286 765 outlet~;
#X floatatom 246 448 5 0 0 0 - - - 0;
#X floatatom 395 447 5 0 0 0 - - - 0;
#X obj 1014 151 hsl 162 19 0 1 0 0 \$0-delay-dryWet \$0-set-delay-dryWet Dry/Wet 40 10 0 12 #fcfcfc #000000 #000000 0 1;
#X obj 396 404 expr 1 - $f1;
#X obj 239 548 *~ 0.5;
#X obj 373 555 *~ 0.5;
#X floatatom 245 387 5 0 0 0 - - - 0;
#X text 1003 127 dry;
#X text 1162 130 wet, f 4;
#X obj 244 353 r \$0-delay-dryWet;
#X floatatom 1011 175 5 0 0 0 - - - 0;
#X floatatom 1007 226 5 0 0 0 - - - 0;
#X floatatom 1006 281 5 0 0 0 - - - 0;
#X text 1086 110 DELAY;
#X obj 43 615 r \$0-delay-feedback;
#X obj 20 438 r \$0-delay-time;
#X obj 1429 62 savestate \$0-delay;
#X obj 1403 388 f;
#X obj 1363 331 r \$0-delay-dryWet;
#X obj 1495 332 r \$0-delay-time;
#X obj 1616 334 r \$0-delay-feedback;
#X obj 1226 202 s \$0-set-delay-dryWet;
#X obj 1384 202 s \$0-set-delay-time;
#X obj 1527 202 s \$0-set-delay-feedback;
#X obj 1009 303 hsl 162 19 0.01 1 1 0 \$0-level \$0-set-level Level 40 10 0 12 #fcfcfc #000000 #000000 0 1;
#X floatatom 1006 327 5 0 0 0 - - - 0;
#X obj 1190 305 tgl 19 0 \$0-mute \$0-set-mute mute -5 -10 0 12 #fcfcfc #000000 #000000 0 1;
#X obj 285 681 *~;
#X obj 324 632 r \$0-level;
#X obj 467 699 line~;
#X obj 467 642 - 1;
#X msg 465 614 1, f 1;
#X obj 451 584 t b f;
#X msg 467 666 \$1 25;
#X obj 451 558 r \$0-mute;
#X obj 286 729 *~;
#X obj 1327 140 unpack f f f f f;
#X obj 1405 428 pack f f f f f;
#X obj 1761 334 r \$0-level;
#X obj 1842 333 r \$0-mute;
#X obj 1696 204 s \$0-set-level;
#X obj 1804 205 s \$0-set-mute;
#X obj 1476 134 route dryWet delayTime feedback level mute bang;
#X obj 1405 466 outlet;
#X obj 1747 162 bng 19 250 50 0 empty empty empty 0 -10 0 12 #fcfcfc #000000 #000000;
#X text 1466 481 sending list out;
#X connect 1 0 11 0;
#X connect 1 0 18 0;
#X connect 1 1 55 0;
#X connect 2 0 9 0;
#X connect 2 0 17 0;
#X connect 3 0 24 0;
#X connect 4 0 2 0;
#X connect 5 0 40 0;
#X connect 7 0 25 0;
#X connect 8 0 9 1;
#X connect 9 0 6 0;
#X connect 10 0 11 1;
#X connect 11 0 0 0;
#X connect 13 0 17 1;
#X connect 14 0 18 1;
#X connect 15 0 23 0;
#X connect 16 0 14 0;
#X connect 17 0 5 1;
#X connect 18 0 5 0;
#X connect 19 0 13 0;
#X connect 19 0 16 0;
#X connect 22 0 19 0;
#X connect 27 0 8 0;
#X connect 28 0 4 0;
#X connect 29 0 49 0;
#X connect 29 1 30 0;
#X connect 30 0 50 0;
#X connect 31 0 30 1;
#X connect 32 0 50 1;
#X connect 33 0 50 2;
#X connect 37 0 38 0;
#X connect 40 0 48 0;
#X connect 41 0 40 1;
#X connect 42 0 48 1;
#X connect 43 0 46 0;
#X connect 44 0 43 0;
#X connect 45 0 44 0;
#X connect 45 1 43 1;
#X connect 46 0 42 0;
#X connect 47 0 45 0;
#X connect 48 0 12 0;
#X connect 49 0 34 0;
#X connect 49 1 35 0;
#X connect 49 2 36 0;
#X connect 49 3 53 0;
#X connect 49 4 54 0;
#X connect 50 0 29 0;
#X connect 50 0 56 0;
#X connect 51 0 50 3;
#X connect 52 0 50 4;
#X connect 55 0 34 0;
#X connect 55 1 35 0;
#X connect 55 2 36 0;
#X connect 55 3 53 0;
#X connect 55 4 54 0;
#X connect 55 5 57 0;
#X connect 57 0 30 0;
#X coords 0 -1 1 1 220 250 1 1000 100;
