#N canvas 104 104 1920 997 12;
#X obj 653 516 random 20000;
#X obj 653 552 - 10000;
#X obj 653 576 / 10000;
#X obj 653 472 bng 19 250 50 0 empty empty empty 0 -10 0 12 #fcfcfc #000000 #000000;
#X floatatom 874 501 5 0 0 0 - - - 0;
#X obj 874 524 t b f;
#X obj 874 588 / 1;
#X msg 874 561 1, f 1;
#X obj 874 612 * 1000;
#X floatatom 874 643 5 0 0 0 - - - 0;
#X obj 729 724 line, f 8;
#X obj 651 649 t f f;
#X obj 728 754 == 1;
#X obj 737 682 pack f f;
#X floatatom 653 611 5 0 0 0 - - - 0;
#X obj 728 789 sel 1;
#X obj 726 884 spigot;
#X obj 1039 783 tgl 19 0 empty empty empty 0 -10 0 12 #fcfcfc #000000 #000000 0 1;
#X floatatom 865 769 5 0 0 0 - - - 0;
#X obj 1047 814 sel 1;
#X obj 1046 844 t b b;
#X msg 1079 878 1, f 1;
#X msg 1104 879 stop;
#X obj 736 308 inlet;
#X obj 884 420 inlet;
#X obj 976 731 outlet;
#X connect 0 0 1 0;
#X connect 1 0 2 0;
#X connect 2 0 14 0;
#X connect 3 0 0 0;
#X connect 4 0 5 0;
#X connect 5 0 7 0;
#X connect 5 1 6 1;
#X connect 6 0 8 0;
#X connect 7 0 6 0;
#X connect 8 0 9 0;
#X connect 9 0 13 1;
#X connect 10 0 12 0;
#X connect 10 0 18 0;
#X connect 10 0 25 0;
#X connect 11 0 13 0;
#X connect 11 1 12 1;
#X connect 12 0 15 0;
#X connect 13 0 10 0;
#X connect 14 0 11 0;
#X connect 15 0 16 0;
#X connect 16 0 3 0;
#X connect 17 0 19 0;
#X connect 19 0 20 0;
#X connect 19 1 16 1;
#X connect 19 1 22 0;
#X connect 20 0 16 0;
#X connect 20 1 21 0;
#X connect 21 0 16 1;
#X connect 22 0 10 0;
#X connect 23 0 17 0;
#X connect 24 0 4 0;
