#N canvas 4 108 1920 997 12;
#X obj 42 90 bng 19 250 50 0 empty empty empty 0 -10 0 12 #fcfcfc #000000 #000000;
#X floatatom 263 119 5 0 0 0 - - - 0;
#X obj 263 142 t b f;
#X obj 263 206 / 1;
#X msg 263 179 1, f 1;
#X obj 263 230 * 1000;
#X floatatom 263 261 5 0 0 0 - - - 0;
#X obj 40 267 t f f;
#X obj 108 308 pack f f;
#X obj 273 38 inlet;
#X obj 32 145 noise~;
#X obj 31 196 snapshot~;
#X obj 108 380 vline~, f 8;
#X obj 104 410 cyclone/equals~ 1;
#X obj 365 349 outlet~;
#X obj 343 37 loadbang;
#X msg 343 67 3;
#X obj 104 439 cyclone/edge~;
#X obj 42 55 loadbang;
#X connect 0 0 11 0;
#X connect 1 0 2 0;
#X connect 2 0 4 0;
#X connect 2 1 3 1;
#X connect 3 0 5 0;
#X connect 4 0 3 0;
#X connect 5 0 6 0;
#X connect 6 0 8 1;
#X connect 7 0 8 0;
#X connect 7 1 13 1;
#X connect 8 0 12 0;
#X connect 9 0 1 0;
#X connect 10 0 11 0;
#X connect 11 0 7 0;
#X connect 12 0 13 0;
#X connect 12 0 14 0;
#X connect 13 0 17 0;
#X connect 15 0 16 0;
#X connect 16 0 1 0;
#X connect 17 0 0 0;
#X connect 18 0 0 0;
