#N canvas 160 160 1920 976 12;
#X obj 243 184 +~ 0;
#X obj 244 218 wrap~;
#X text 289 216 equivalente a [%~ 1].;
#X obj 241 268 *~ 100, f 10;
#X obj 380 281 -~ 0.5;
#X obj 378 354 cos~;
#X obj 25 315 delread4~ \$0-delayLine;
#X obj 25 357 *~;
#X obj 126 230 random 500;
#X obj 124 200 bng 19 250 50 0 empty empty empty 0 -10 0 12 #fcfcfc #000000 #000000;
#X obj 379 323 *~ 0.5;
#X obj 106 276 +~;
#X obj 35 61 delwrite~ \$0-delayLine 2000;
#X obj 36 14 inlet~;
#X text 90 13 audio in;
#X text 295 19 phasor in;
#X obj 545 21 inlet;
#X text 594 22 window size;
#X obj 384 20 inlet;
#X text 433 19 shift factor;
#X obj 25 426 outlet~;
#X text 92 429 audio out;
#X floatatom 268 156 5 0 0 0 - - - 0;
#X floatatom 308 241 5 0 0 0 - - - 0;
#X obj 268 130 r \$0-shift-factor;
#X obj 383 47 s \$0-shift-factor;
#X obj 545 56 s \$0-window-size;
#X obj 307 190 r \$0-window-size;
#X obj 493 443 cyclone/edge~;
#X obj 494 405 cyclone/greaterthaneq~ 0.99;
#X obj 493 477 s \$0-end-cycle;
#X obj 124 171 r \$0-end-cycle;
#X obj 245 17 inlet~;
#X connect 0 0 1 0;
#X connect 1 0 4 0;
#X connect 1 0 3 0;
#X connect 1 0 29 0;
#X connect 3 0 11 0;
#X connect 4 0 10 0;
#X connect 5 0 7 1;
#X connect 6 0 7 0;
#X connect 7 0 20 0;
#X connect 8 0 11 1;
#X connect 9 0 8 0;
#X connect 10 0 5 0;
#X connect 11 0 6 0;
#X connect 13 0 12 0;
#X connect 16 0 26 0;
#X connect 18 0 25 0;
#X connect 22 0 0 1;
#X connect 23 0 3 1;
#X connect 24 0 22 0;
#X connect 27 0 23 0;
#X connect 28 0 30 0;
#X connect 29 0 28 0;
#X connect 31 0 9 0;
#X connect 32 0 0 0;
