#N canvas -33 140 1920 997 12;
#X obj 33 4587 output~;
#X obj 43 4597 output~;
#X obj 53 4607 output~;
#X obj 208 179 phasor~ 4;
#X floatatom 206 153 5 0 0 0 - - - 0;
#X obj 2048 225 random 500;
#X obj 2046 195 bng 19 250 50 0 empty empty empty 0 -10 0 12 #fcfcfc #000000 #000000;
#X obj 1995 372 /~ 2;
#X obj 1996 343 +~;
#X obj 1960 252 +~;
#X obj 2122 127 bng 19 250 50 0 empty empty empty 0 -10 0 12 #fcfcfc #000000 #000000;
#X obj 164 88 bng 19 250 50 0 empty empty empty 0 -10 0 12 #fcfcfc #000000 #000000;
#X obj 164 61 metro 100;
#X obj 164 26 tgl 19 0 empty empty empty 0 -10 0 12 #fcfcfc #000000 #000000 0 1;
#X floatatom 221 27 5 0 0 0 - - - 0;
#X floatatom 349 86 5 0 0 2 pitchDispersion - - 0;
#X floatatom 1418 1232 5 0 0 0 - - - 0;
#X floatatom 1486 1223 8 0 0 0 - - - 0;
#X obj 1487 1127 bng 19 250 50 0 empty empty empty 0 -10 0 12 #fcfcfc #000000 #000000;
#X floatatom 267 84 5 0 0 2 pitchRatio - - 0;
#N canvas 192 192 450 300 min-max 0;
#X obj 32 150 sel 1;
#X obj 105 154 sel 1;
#X floatatom 33 58 5 0 0 0 - - - 0;
#X obj 31 192 f;
#X obj 106 194 f;
#X floatatom 30 228 5 0 0 0 - - - 0;
#X floatatom 109 230 8 0 0 0 - - - 0;
#X obj 33 118 > -100;
#X obj 103 117 < 100;
#X msg 171 113 -100;
#X msg 171 151 100;
#X obj 168 53 bng 19 250 50 0 empty empty empty 0 -10 0 12 #fcfcfc #000000 #000000;
#X obj 52 12 inlet;
#X obj 185 22 inlet;
#X obj 31 267 outlet;
#X obj 117 267 outlet;
#X connect 0 0 3 0;
#X connect 1 0 4 0;
#X connect 2 0 3 1;
#X connect 2 0 4 1;
#X connect 2 0 7 0;
#X connect 2 0 8 0;
#X connect 3 0 5 0;
#X connect 3 0 7 1;
#X connect 4 0 6 0;
#X connect 4 0 8 1;
#X connect 5 0 14 0;
#X connect 6 0 15 0;
#X connect 7 0 0 0;
#X connect 8 0 1 0;
#X connect 9 0 7 1;
#X connect 10 0 8 1;
#X connect 11 0 9 0;
#X connect 11 0 10 0;
#X connect 12 0 2 0;
#X connect 13 0 11 0;
#X restore 1419 1173 pd min-max;
#X obj 32 334 pitchShiftGrain~;
#X obj 176 334 pitchShiftGrain~;
#X obj 335 336 pitchShiftGrain~;
#X obj 494 335 pitchShiftGrain~;
#X floatatom 247 305 5 0 0 0 - - - 0;
#X floatatom 405 308 5 0 0 0 - - - 0;
#X floatatom 566 308 5 0 0 0 - - - 0;
#X floatatom 388 182 5 0 0 2 window\ size - - 0;
#N canvas -96 295 1920 976 pitchCalculator 0;
#X obj 106 372 expr 1 - $f1;
#X obj 107 411 * 1000;
#X obj 105 452 / 0;
#X obj 178 124 bng 19 250 50 0 empty empty empty 0 -10 0 12 #fcfcfc #000000 #000000;
#X obj 309 201 * 2;
#X floatatom 304 96 5 0 0 2 pitchDispersion - - 0;
#X obj 181 220 * 1;
#X obj 182 255 - 0;
#X floatatom 183 287 5 0 0 0 - - - 0;
#X obj 179 158 random 1000;
#X obj 182 191 / 1000;
#X obj 107 310 + 0;
#X floatatom 105 279 5 0 0 2 pitchRatio - - 0;
#X obj 182 319 t b f;
#X floatatom 107 344 5 0 0 0 - - - 0;
#X obj 104 504 outlet;
#X obj 24 24 inlet;
#X text 72 28 bang triggers random;
#X obj 246 21 inlet;
#X text 294 25 pitch ratio;
#X obj 410 23 inlet;
#X text 458 27 pitch dispersion;
#X obj 621 26 inlet;
#X text 678 26 window size;
#X connect 0 0 1 0;
#X connect 1 0 2 0;
#X connect 2 0 15 0;
#X connect 3 0 9 0;
#X connect 4 0 6 1;
#X connect 5 0 4 0;
#X connect 5 0 7 1;
#X connect 6 0 7 0;
#X connect 7 0 8 0;
#X connect 8 0 13 0;
#X connect 9 0 10 0;
#X connect 10 0 6 0;
#X connect 11 0 14 0;
#X connect 12 0 11 0;
#X connect 13 0 11 0;
#X connect 13 1 11 1;
#X connect 14 0 0 0;
#X connect 16 0 3 0;
#X connect 18 0 12 0;
#X connect 20 0 5 0;
#X connect 22 0 2 1;
#X restore 207 117 pd pitchCalculator;
#X obj 38 484 +~;
#X obj 37 43 inlet~;
#X obj 87 898 outlet~;
#X obj 715 141 hsl 162 19 0 2 0 0 \$0-pitch-ratio \$0-set-pitch-ratio pitch\ ratio 25 10 0 12 #fcfcfc #000000 #000000 0 1;
#X obj 719 193 hsl 162 19 0 2 0 0 \$0-pitch-dispersion \$0-set-pitch-dispersion pitch\ dispersion 25 10 0 12 #fcfcfc #000000 #000000 0 1;
#X floatatom 715 218 5 0 0 0 - - - 0;
#X floatatom 712 165 5 0 0 0 - - - 0;
#X obj 267 44 r \$0-pitch-ratio;
#X obj 397 41 r \$0-pitch-dispersion;
#X obj 164 -3 loadbang;
#X obj 718 252 hsl 162 19 0 5000 0 0 \$0-pitch-dispersion-speed \$0-set-pitch-dispersion-speed pitch\ dispersion\ speed 8 10 0 12 #fcfcfc #000000 #000000 0 1;
#X floatatom 714 277 5 0 0 0 - - - 0;
#X obj 235 -3 r \$0-pitch-dispersion-speed;
#X text 757 111 PITCH SHIFTER;
#X msg 247 275 0.25;
#X msg 406 278 0.5;
#X msg 566 282 0.75;
#X obj 1148 260 savestate \$0-pitchshifter;
#X obj 1319 367 f;
#X obj 1364 310 r \$0-pitch-ratio;
#X obj 1504 307 r \$0-pitch-dispersion;
#X obj 1668 307 r \$0-pitch-dispersion-speed;
#X obj 1071 511 s \$0-set-pitch-ratio;
#X obj 1224 511 s \$0-set-pitch-dispersion;
#X obj 1407 510 s \$0-set-pitch-dispersion-speed;
#X obj 718 303 hsl 162 19 0.01 1 1 0 \$0-level \$0-set-level level 8 10 0 12 #fcfcfc #000000 #000000 0 1;
#X floatatom 715 328 5 0 0 0 - - - 0;
#X obj 894 304 tgl 19 0 \$0-mute \$0-set-mute mute -5 -10 0 12 #fcfcfc #000000 #000000 0 1;
#X obj 241 889 outlet~;
#X obj 37 658 *~;
#X obj 155 659 *~;
#N canvas 182 182 1920 997 sinePanner 0;
#X obj 226 218 snapshot~;
#X obj 304 188 metro 10;
#X obj 304 125 loadbang;
#X obj 305 157 tgl 19 0 empty empty empty 0 -10 0 12 #fcfcfc #000000 #000000 0 1;
#X floatatom 142 275 5 0 0 0 - - - 0;
#X obj 141 303 + 1;
#X obj 137 334 / 2;
#X floatatom 132 394 5 0 0 0 - - - 0;
#X floatatom 202 100 5 0 0 0 - - - 0;
#X obj 53 319 -;
#X msg 57 273 1, f 1;
#X obj 68 230 t b f;
#X obj 52 380 / 2;
#X floatatom 52 418 5 0 0 0 - - - 0;
#X obj 227 188 osc~ 3;
#X obj 200 60 inlet;
#X obj 51 461 outlet;
#X obj 133 455 outlet;
#X connect 0 0 4 0;
#X connect 1 0 0 0;
#X connect 2 0 3 0;
#X connect 3 0 1 0;
#X connect 4 0 5 0;
#X connect 4 0 11 0;
#X connect 5 0 6 0;
#X connect 6 0 7 0;
#X connect 7 0 17 0;
#X connect 8 0 14 0;
#X connect 9 0 12 0;
#X connect 10 0 9 0;
#X connect 11 0 10 0;
#X connect 11 1 9 1;
#X connect 12 0 13 0;
#X connect 13 0 16 0;
#X connect 14 0 0 0;
#X connect 15 0 8 0;
#X restore 53 511 pd sinePanner;
#X f 17;
#X obj 389 108 loadbang;
#X msg 388 137 500;
#X msg 57 569 \$1 20;
#X msg 174 578 \$1 20;
#X obj 55 602 line~;
#X obj 174 612 line~;
#X obj 36 806 *~;
#X obj 87 852 *~;
#X obj 1668 350 r \$0-level;
#X obj 1631 509 s \$0-set-level;
#X obj 156 799 *~;
#X obj 174 757 r \$0-level;
#X obj 276 794 line~;
#X obj 270 737 - 1;
#X msg 268 709 1, f 1;
#X obj 254 679 t b f;
#X msg 276 761 \$1 25;
#X obj 254 653 r \$0-mute;
#X obj 241 845 *~;
#X obj 1319 402 pack f f f f f;
#X obj 1760 349 r \$0-mute;
#X obj 1748 507 s \$0-set-mute;
#X obj 1148 402 unpack f f f f f;
#X obj 1158 182 route pitchRatio pitchDispersion pitchDispSpeed level mute bang, f 65;
#X obj 1534 215 bng 19 250 50 0 empty empty empty 0 -10 0 12 #fcfcfc #000000 #000000;
#X obj 1319 435 outlet;
#X connect 3 0 21 1;
#X connect 3 0 22 1;
#X connect 3 0 23 1;
#X connect 3 0 24 1;
#X connect 4 0 3 0;
#X connect 5 0 9 1;
#X connect 6 0 5 0;
#X connect 8 0 7 0;
#X connect 10 0 6 0;
#X connect 11 0 29 0;
#X connect 12 0 11 0;
#X connect 13 0 12 0;
#X connect 14 0 12 1;
#X connect 15 0 29 2;
#X connect 18 0 20 1;
#X connect 19 0 29 1;
#X connect 20 0 16 0;
#X connect 20 1 17 0;
#X connect 21 0 30 0;
#X connect 22 0 30 0;
#X connect 23 0 30 0;
#X connect 24 0 30 0;
#X connect 25 0 22 2;
#X connect 26 0 23 2;
#X connect 27 0 24 2;
#X connect 28 0 22 3;
#X connect 28 0 23 3;
#X connect 28 0 24 3;
#X connect 28 0 21 3;
#X connect 28 0 29 3;
#X connect 29 0 4 0;
#X connect 30 0 59 0;
#X connect 30 0 60 0;
#X connect 31 0 21 0;
#X connect 31 0 22 0;
#X connect 31 0 23 0;
#X connect 31 0 24 0;
#X connect 31 1 85 0;
#X connect 33 0 36 0;
#X connect 34 0 35 0;
#X connect 37 0 19 0;
#X connect 38 0 15 0;
#X connect 39 0 13 0;
#X connect 39 0 44 0;
#X connect 39 0 45 0;
#X connect 39 0 46 0;
#X connect 40 0 41 0;
#X connect 42 0 14 0;
#X connect 44 0 25 0;
#X connect 45 0 26 0;
#X connect 46 0 27 0;
#X connect 47 0 84 0;
#X connect 47 1 48 0;
#X connect 48 0 81 0;
#X connect 49 0 48 1;
#X connect 50 0 81 1;
#X connect 51 0 81 2;
#X connect 55 0 56 0;
#X connect 59 0 68 0;
#X connect 60 0 72 0;
#X connect 61 0 64 0;
#X connect 61 1 65 0;
#X connect 62 0 63 0;
#X connect 63 0 28 0;
#X connect 64 0 66 0;
#X connect 65 0 67 0;
#X connect 66 0 59 1;
#X connect 67 0 60 1;
#X connect 68 0 69 0;
#X connect 69 0 32 0;
#X connect 70 0 81 3;
#X connect 72 0 80 0;
#X connect 73 0 72 1;
#X connect 73 0 68 1;
#X connect 74 0 80 1;
#X connect 74 0 69 1;
#X connect 75 0 78 0;
#X connect 76 0 75 0;
#X connect 77 0 76 0;
#X connect 77 1 75 1;
#X connect 78 0 74 0;
#X connect 79 0 77 0;
#X connect 80 0 58 0;
#X connect 81 0 47 0;
#X connect 81 0 87 0;
#X connect 82 0 81 4;
#X connect 84 0 52 0;
#X connect 84 1 53 0;
#X connect 84 2 54 0;
#X connect 84 3 71 0;
#X connect 84 4 83 0;
#X connect 85 0 52 0;
#X connect 85 1 53 0;
#X connect 85 2 54 0;
#X connect 85 3 71 0;
#X connect 85 4 83 0;
#X connect 85 5 86 0;
#X connect 86 0 48 0;
#X coords 0 -1 1 1 220 250 1 700 100;
