#N canvas 32 32 1920 976 12;
#X msg 194 453 roomsize \$1;
#X msg 285 452 damping \$1;
#X msg 372 452 width \$1;
#X msg 23 453 wet \$1;
#X msg 93 480 dry \$1;
#X msg 442 454 bypass \$1;
#X obj 1086 814 tgl 19 0 \$0-bypass \$0-set-bypass bypass -15 -10 0 12 #fcfcfc #000000 #000000 0 1;
#X obj 1136 814 tgl 19 0 \$0-freeze \$0-set-freeze freeze -15 -10 0 12 #fcfcfc #000000 #000000 0 1;
#X msg 519 456 freeze \$1;
#X obj 519 139 hsl 162 19 0 1 0 0 \$0-wetDry \$0-set-wetDry empty -2 -10 0 12 #fcfcfc #000000 #000000 0 1;
#X text 672 115 wet;
#X text 503 118 dry;
#X obj 94 450 expr 1 - $f1;
#X obj 517 248 hsl 150 19 0 1 0 0 \$0-roomsize \$0-set-roomsize roomsize 50 10 0 12 #fcfcfc #000000 #000000 0 1;
#X obj 519 194 hsl 150 19 0 2.4 0 0 \$0-damping \$0-set-damping damping 50 10 0 12 #fcfcfc #000000 #000000 0 1;
#X obj 1195 797 hsl 150 19 0 1 0 0 \$0-width \$0-set-width width 50 10 0 12 #fcfcfc #000000 #000000 0 1;
#X obj 48 37 inlet~;
#X floatatom 516 166 5 0 0 0 - - - 0;
#X text 601 108 REVERB;
#X floatatom 1193 823 5 0 0 0 - - - 0;
#X floatatom 516 218 5 0 0 0 - - - 0;
#X floatatom 514 272 5 0 0 0 - - - 0;
#X obj 23 414 r \$0-wetDry;
#X obj 285 421 r \$0-damping;
#X obj 167 423 r \$0-roomsize;
#X obj 866 119 savestate \$0-reverb;
#X obj 996 212 f;
#X obj 1013 171 r \$0-wetDry;
#X obj 1112 170 r \$0-roomsize;
#X obj 1222 171 r \$0-damping;
#X obj 730 438 s \$0-set-wetDry;
#X obj 847 439 s \$0-set-roomsize;
#X obj 988 437 s \$0-set-damping;
#X obj 587 655 vfreeverb~;
#X msg 644 560 room \$1;
#X msg 715 558 damp \$1;
#X msg 795 560 dry \$1;
#X msg 861 559 wet \$1;
#X msg 926 558 clear;
#X obj 795 527 expr 1 - $f1;
#X text 1358 795 deprecated temporally;
#X obj 1084 740 loadbang;
#X msg 1086 771 1;
#X obj 683 249 tgl 19 0 \$0-clear \$0-set-clear clear -8 -10 0 12 #fcfcfc #000000 #000000 0 1;
#X obj 518 298 hsl 150 19 0.01 1 1 0 \$0-level \$0-set-level level 50 10 0 12 #fcfcfc #000000 #000000 0 1;
#X floatatom 515 322 5 0 0 0 - - - 0;
#X obj 1402 171 r \$0-clear;
#X obj 1226 435 s \$0-set-clear;
#X text 85 527 here goes freeverb~/freeverb~ but the deken version is not supported for arm architecture;
#X obj 1111 436 s \$0-set-level;
#X obj 1313 171 r \$0-level;
#X obj 738 885 outlet~;
#X obj 653 795 *~;
#X obj 671 753 r \$0-level;
#X obj 773 790 line~;
#X obj 767 733 - 1;
#X msg 765 705 1, f 1;
#X obj 751 675 t b f;
#X msg 773 757 \$1 25;
#X obj 751 649 r \$0-mute;
#X obj 738 841 *~;
#X obj 604 886 outlet~;
#X obj 586 796 *~;
#X obj 604 842 *~;
#X obj 682 301 tgl 19 0 \$0-mute \$0-set-mute mute -5 -10 0 12 #fcfcfc #000000 #000000 0 1;
#X obj 1487 173 r \$0-mute;
#X obj 1333 435 s \$0-set-mute;
#X obj 999 273 pack f f f f f f, f 28;
#X obj 867 325 unpack f f f f f f;
#X obj 1084 105 route wetDry roomsize damping level clear mute bang;
#X obj 1387 138 bng 19 250 50 0 empty empty empty 0 -10 0 12 #fcfcfc #000000 #000000;
#X obj 999 306 outlet;
#X connect 9 0 17 0;
#X connect 12 0 4 0;
#X connect 13 0 21 0;
#X connect 14 0 20 0;
#X connect 15 0 19 0;
#X connect 16 0 33 0;
#X connect 16 0 33 1;
#X connect 16 1 69 0;
#X connect 22 0 3 0;
#X connect 22 0 12 0;
#X connect 22 0 39 0;
#X connect 22 0 37 0;
#X connect 23 0 1 0;
#X connect 23 0 35 0;
#X connect 24 0 0 0;
#X connect 24 0 34 0;
#X connect 25 0 68 0;
#X connect 25 1 26 0;
#X connect 26 0 67 0;
#X connect 27 0 26 1;
#X connect 28 0 67 1;
#X connect 29 0 67 2;
#X connect 33 0 62 0;
#X connect 33 1 52 0;
#X connect 34 0 33 2;
#X connect 35 0 33 2;
#X connect 36 0 33 2;
#X connect 37 0 33 2;
#X connect 38 0 33 2;
#X connect 39 0 36 0;
#X connect 41 0 42 0;
#X connect 42 0 6 0;
#X connect 44 0 45 0;
#X connect 46 0 67 4;
#X connect 50 0 67 3;
#X connect 52 0 60 0;
#X connect 53 0 52 1;
#X connect 53 0 62 1;
#X connect 54 0 60 1;
#X connect 54 0 63 1;
#X connect 55 0 58 0;
#X connect 56 0 55 0;
#X connect 57 0 56 0;
#X connect 57 1 55 1;
#X connect 58 0 54 0;
#X connect 59 0 57 0;
#X connect 60 0 51 0;
#X connect 62 0 63 0;
#X connect 63 0 61 0;
#X connect 65 0 67 5;
#X connect 67 0 25 0;
#X connect 67 0 71 0;
#X connect 68 0 30 0;
#X connect 68 1 31 0;
#X connect 68 2 32 0;
#X connect 68 3 49 0;
#X connect 68 4 47 0;
#X connect 68 5 66 0;
#X connect 69 0 30 0;
#X connect 69 1 31 0;
#X connect 69 2 32 0;
#X connect 69 3 49 0;
#X connect 69 4 47 0;
#X connect 69 5 66 0;
#X connect 69 6 70 0;
#X connect 70 0 26 0;
#X coords 0 -1 1 1 250 250 1 500 100;
