#N canvas -158 74 1920 997 12;
#X obj 512 88 reverb~;
#A saved 0.732919 0.174497 0.531544 0.0870156 0 1;
#X obj 792 89 pitchshift~;
#A saved 1.29193 0.819876 403.727 1 1;
#X obj 35 82 delay~;
#A saved 0.770186 658.385 0 0.164965 1;
#X floatatom 442 346 5 0 0 0 - - - 0;
#X obj 268 85 vocoder~;
#A saved 1.23161 1.96087 97.472 0.0641879 0;
#X obj 1373 358 send~ \$0-audioTest;
#X obj 792 55 receive~ \$0-audioTest;
#X obj 510 56 receive~ \$0-audioTest;
#X obj 268 48 receive~ \$0-audioTest;
#X obj 31 57 receive~ \$0-audioTest;
#X obj 425 1 r \$0-dumpBang;
#X obj 423 26 t b b b b;
#X obj 478 597 output~;
#X obj 1292 144 soundfiler;
#X obj 1304 55 loadbang;
#X obj 1532 96 array define test;
#X obj 1409 263 tabplay~ test;
#X obj 1432 200 bng 19 250 50 0 empty empty empty 0 -10 0 12 #fcfcfc #000000 #000000;
#X msg 1296 98 read -resize piezo.wav test;
#X obj 1532 295 hsl 162 19 0 5 0 0 empty empty empty -2 -10 0 12 #fcfcfc #000000 #000000 0 1;
#X obj 1376 319 *~;
#X msg 1464 200 stop;
#X msg 1079 94 read -resize speech.wav test;
#X connect 0 0 12 0;
#X connect 0 1 12 1;
#X connect 1 0 12 0;
#X connect 1 1 12 1;
#X connect 2 0 12 0;
#X connect 2 0 12 1;
#X connect 4 0 12 0;
#X connect 4 0 12 1;
#X connect 4 1 3 0;
#X connect 6 0 1 0;
#X connect 7 0 0 0;
#X connect 8 0 4 0;
#X connect 9 0 2 0;
#X connect 10 0 11 0;
#X connect 11 0 2 0;
#X connect 11 1 4 0;
#X connect 11 2 0 0;
#X connect 11 3 1 0;
#X connect 14 0 18 0;
#X connect 16 0 20 0;
#X connect 16 1 17 0;
#X connect 17 0 16 0;
#X connect 18 0 13 0;
#X connect 19 0 20 1;
#X connect 20 0 5 0;
#X connect 21 0 16 0;
#X connect 22 0 13 0;
