#N canvas 9 131 1920 997 12;
#N canvas 5 91 1920 997 fft-analysis 0;
#X obj 32 186 *~;
#X obj 32 105 inlet~;
#X obj 29 257 rfft~;
#X obj 22 891 *~;
#X obj 22 784 rifft~;
#X obj 21 972 outlet~;
#X text 97 956 This repackages the output into 64-sample chunks for the parent window. Since we're operating with an overlap \, the outlet~ object performs an overlapped sum of the blocks computed in this window.;
#X obj 593 25 loadbang;
#X msg 593 48 \; window-size 1024 \;, f 23;
#X obj 28 341 cyclone/cartopol~;
#X obj 11 664 cyclone/poltocar~;
#X floatatom 645 635 5 0 0 0 - - - 0;
#X obj 51 160 tabreceive~ \$0-sine;
#X obj 40 865 tabreceive~ \$0-sine;
#X obj 33 32 block~ 1024 2;
#X obj 128 569 inlet~;
#X obj 128 612 *~ 3.14159;
#X obj 11 740 /~ 600;
#X obj 72 739 /~ 600;
#X obj 11 612 *~ 1;
#X connect 0 0 2 0;
#X connect 1 0 0 0;
#X connect 2 0 9 0;
#X connect 2 1 9 1;
#X connect 3 0 5 0;
#X connect 4 0 3 0;
#X connect 7 0 8 0;
#X connect 9 0 19 0;
#X connect 10 0 17 0;
#X connect 10 1 18 0;
#X connect 11 0 17 1;
#X connect 11 0 18 1;
#X connect 12 0 0 1;
#X connect 13 0 3 1;
#X connect 15 0 16 0;
#X connect 16 0 10 1;
#X connect 17 0 4 0;
#X connect 18 0 4 1;
#X connect 19 0 10 0;
#X restore 61 178 pd fft-analysis;
#X floatatom 263 496 6 0 0 0 - - - 0;
#N canvas 55 170 1920 976 sine-window 0;
#N canvas 0 0 450 300 (subpatch) 0;
#X array \$0-sine 1024 float 0;
#X coords 0 1 1023 0 300 100 1 0 0;
#X restore 110 394 graph;
#X obj 279 209 osc~;
#X obj 86 113 r window-size;
#X obj 157 237 /;
#X obj 175 205 samplerate~;
#X obj 157 315 s window-sec;
#X obj 67 251 swap;
#X obj 67 275 /;
#X obj 67 299 s window-hz;
#X obj 168 265 * 1000;
#X obj 168 292 s window-msec;
#X obj 86 148 t f b f;
#X msg 175 155 resize \$1;
#X obj 279 122 r window-hz;
#X obj 279 150 t f b;
#X text 56 20 calculate Hann window table (variable window size) and constants window-hz (fundamental frequency of analysis) \, window-sec and window-msec (analysis window size in seconds and msec)., f 56;
#X obj 175 179 s \$0-sine;
#X obj 310 276 tabwrite~ \$0-sine;
#X msg 352 154 0.75;
#X obj 279 175 / 2;
#X connect 1 0 17 0;
#X connect 2 0 11 0;
#X connect 3 0 5 0;
#X connect 3 0 9 0;
#X connect 4 0 3 1;
#X connect 4 0 6 1;
#X connect 6 0 7 0;
#X connect 6 1 7 1;
#X connect 7 0 8 0;
#X connect 9 0 10 0;
#X connect 11 0 3 0;
#X connect 11 0 6 0;
#X connect 11 1 4 0;
#X connect 11 2 12 0;
#X connect 12 0 16 0;
#X connect 13 0 14 0;
#X connect 14 0 19 0;
#X connect 14 1 18 0;
#X connect 14 1 17 0;
#X connect 18 0 1 1;
#X connect 19 0 1 0;
#X restore 208 182 pd sine-window;
#X obj 71 317 combDelay~;
#A saved 0.0465838 -0.1;
#X obj 410 159 noiseRamp;
#X obj 379 106 tgl 19 0 empty empty empty 0 -10 0 12 #fcfcfc #000000 #000000 0 1;
#X floatatom 507 104 5 0 0 0 - - - 0;
#X floatatom 408 189 5 0 0 0 - - - 0;
#X floatatom 231 88 5 0 0 0 - - - 0;
#X obj 164 123 noiseRamp~;
#X obj 61 106 inlet~;
#X msg 117 289 decayTime \$1;
#X msg 217 289 delayTime \$1;
#X obj 611 138 hsl 162 19 3 120 0 0 \$0-noise-freq \$0-set-noise-freq noiseFreq 40 10 0 12 #fcfcfc #000000 #000000 0 1;
#X floatatom 608 162 5 0 0 0 - - - 0;
#X obj 612 192 hsl 162 19 0.01 1.5 0 0 \$0-delay-time \$0-set-delay-time delayTime 40 10 0 12 #fcfcfc #000000 #000000 0 1;
#X floatatom 609 216 5 0 0 0 - - - 0;
#X obj 612 249 hsl 162 19 -0.1 2 0 0 \$0-decay-time \$0-set-decay-time decayTime 40 10 0 12 #fcfcfc #000000 #000000 0 1;
#X floatatom 609 273 5 0 0 0 - - - 0;
#X text 666 110 VOCODER;
#X obj 230 55 r \$0-noise-freq;
#X obj 225 266 r \$0-delay-time;
#X obj 122 243 r \$0-decay-time;
#X obj 1141 302 f;
#X obj 1159 260 r \$0-delay-time;
#X obj 1284 262 r \$0-decay-time;
#X obj 993 467 s \$0-set-delay-time;
#X obj 1155 467 s \$0-set-decay-time;
#X obj 986 236 savestate \$0-vocoder;
#X obj 1421 263 r \$0-noise-freq;
#X obj 263 542 outlet;
#X obj 1312 469 s \$0-set-noise-freq;
#X obj 155 834 outlet~;
#X obj 70 744 *~;
#X obj 88 702 r \$0-level;
#X obj 190 739 line~;
#X obj 184 682 - 1;
#X msg 182 654 1, f 1;
#X obj 168 624 t b f;
#X msg 190 706 \$1 25;
#X obj 168 598 r \$0-mute;
#X obj 155 790 *~;
#X obj 612 303 hsl 162 19 0.01 1 1 0 \$0-level \$0-set-level level 40 10 0 12 #fcfcfc #000000 #000000 0 1;
#X floatatom 609 327 5 0 0 0 - - - 0;
#X obj 790 304 tgl 19 0 \$0-mute \$0-set-mute mute 0 -10 0 12 #fcfcfc #000000 #000000 0 1;
#X obj 992 356 unpack f f f f f;
#X obj 1140 337 pack f f f f f;
#X obj 1554 264 r \$0-level;
#X obj 1641 261 r \$0-mute;
#X obj 1456 468 s \$0-set-level;
#X obj 1567 468 s \$0-set-mute;
#X obj 1041 129 route delay-time decay-time noise-freq level mute bang;
#X obj 1140 365 outlet;
#X obj 1353 159 bng 19 250 50 0 empty empty empty 0 -10 0 12 #fcfcfc #000000 #000000;
#X connect 0 0 3 0;
#X connect 1 0 30 0;
#X connect 3 0 33 0;
#X connect 3 1 1 0;
#X connect 4 0 7 0;
#X connect 5 0 4 0;
#X connect 6 0 4 1;
#X connect 8 0 9 0;
#X connect 9 0 0 1;
#X connect 10 0 0 0;
#X connect 10 1 51 0;
#X connect 11 0 3 0;
#X connect 12 0 3 0;
#X connect 13 0 14 0;
#X connect 15 0 16 0;
#X connect 17 0 18 0;
#X connect 20 0 8 0;
#X connect 21 0 12 0;
#X connect 22 0 11 0;
#X connect 23 0 46 0;
#X connect 24 0 23 1;
#X connect 25 0 46 1;
#X connect 28 0 45 0;
#X connect 28 1 23 0;
#X connect 29 0 46 2;
#X connect 33 0 41 0;
#X connect 34 0 33 1;
#X connect 35 0 41 1;
#X connect 36 0 39 0;
#X connect 37 0 36 0;
#X connect 38 0 37 0;
#X connect 38 1 36 1;
#X connect 39 0 35 0;
#X connect 40 0 38 0;
#X connect 41 0 32 0;
#X connect 42 0 43 0;
#X connect 45 0 26 0;
#X connect 45 1 27 0;
#X connect 45 2 31 0;
#X connect 45 3 49 0;
#X connect 45 4 50 0;
#X connect 46 0 28 0;
#X connect 46 0 52 0;
#X connect 47 0 46 3;
#X connect 48 0 46 4;
#X connect 51 0 26 0;
#X connect 51 1 27 0;
#X connect 51 2 31 0;
#X connect 51 3 49 0;
#X connect 51 4 50 0;
#X connect 51 5 53 0;
#X connect 53 0 23 0;
#X coords 0 -1 1 1 220 250 1 600 100;
